<?xml version="1.0" encoding="UTF-8"?>
<svg id="Layer_1" xmlns="http://www.w3.org/2000/svg" version="1.1" viewBox="0 0 180 180">
  <!-- Generator: Adobe Illustrator 29.0.1, SVG Export Plug-In . SVG Version: 2.1.0 Build 192)  -->
  <defs>
    <style>
      .st0 {
        fill: #fff;
      }

      .st1 {
        fill: #ff6c0e;
      }
    </style>
  </defs>
  <rect class="st1" x="-6.52" y="-5.68" width="191.43" height="191.43"/>
  <g>
    <g>
      <polygon class="st0" points="88.66 119.32 91.94 119.32 90.28 112.61 88.66 119.32"/>
      <path class="st0" d="M30.75,91.77v44.85h116.15v-44.85H30.75ZM63.34,131.45l-4.53-18.28-4.4,18.28h-9.89l-8.21-34.11h8.68l4.54,18.32,4.41-18.32h9.64l4.54,18.32,4.41-18.32h8.68l-8.21,34.11h-9.66ZM93.79,131.45l-.79-3.17h-7.46l-.76,3.17h-8.68l8.21-34.11h9.72l8.45,34.11h-8.69ZM121.86,131.45h-16.21v-34.11h8.44v25.68h7.77v8.44ZM141.24,131.45h-16.21v-34.11h8.44v25.68h7.77v8.44Z"/>
    </g>
    <g>
      <path class="st0" d="M64.32,69.76c0,3.31-.76,6.27-2.27,8.88-1.51,2.61-3.42,4.62-5.72,6.02-1.73,1.05-3.63,1.78-5.7,2.19-2.07.42-4.52.62-7.34.62h-12.52v-35.5h12.88c2.89,0,5.39.24,7.49.73,2.1.48,3.86,1.17,5.29,2.06,2.45,1.49,4.38,3.51,5.78,6.05,1.41,2.53,2.11,5.52,2.11,8.95ZM54.86,69.69c0-2.34-.42-4.33-1.28-6-.85-1.66-2.2-2.96-4.04-3.9-.94-.46-1.89-.78-2.87-.94-.98-.17-2.45-.25-4.42-.25h-2.31v22.22h2.31c2.18,0,3.78-.1,4.79-.3,1.02-.2,2.01-.56,2.98-1.08,1.67-.96,2.89-2.23,3.67-3.83.78-1.6,1.17-3.57,1.17-5.93Z"/>
      <path class="st0" d="M147.64,69.3h-.74c-.36-.12-.93-.22-1.72-.28-.79-.06-1.45-.09-1.98-.09-1.19,0-2.25.08-3.17.23-.91.16-1.9.42-2.95.79v17.53h-8.42v-26.18h8.42v3.84c1.85-1.58,3.45-2.64,4.82-3.16,1.36-.52,2.62-.78,3.77-.78.29,0,.63,0,1,.02.37.01.7.04.98.07v8Z"/>
    </g>
    <path class="st0" d="M130.13,37.1c-.43,0-1.66,3.33-2.8,7.96-1.6.6-5.37-4.91-5.78-3.56-.25.83,3.07,5.9,4.73,8.36-.72,3.76-2.69,5.13-3.99,5.64-4.32,1.72-15.84,4.89-15.84,4.89l.08.06c-2.22.61-4.1,1.65-5.65,3.13-2.65,2.52-3.97,5.95-3.97,10.27s1.4,7.73,4.2,10.1,6.82,3.54,12.08,3.54c2.04,0,3.89-.17,5.57-.51,1.68-.34,3.47-.89,5.36-1.66v-6.74h-.93c-.96.73-2.28,1.42-3.94,2.05-1.66.64-3.38.96-5.15.96-2.8,0-4.92-.54-6.35-1.63-1.44-1.09-2.22-2.66-2.34-4.71h19.21v-2.94c0-4.04-1.07-7.14-3.22-9.29-.53-.53-1.11-.99-1.77-1.39,2-.88,4.11-1.83,5.94-2.68,3.08-1.43,3.62-2.57,3.94-5.43.65-5.83,1.44-16.43.63-16.43ZM105.37,70.32c.13-1.85.71-3.19,1.75-4.03,1.04-.84,2.37-1.26,3.99-1.26,1.74,0,3.02.44,3.84,1.33.82.89,1.26,2.21,1.31,3.96h-10.89Z"/>
    <path class="st0" d="M94.5,72.3c0-4.04-1.07-7.14-3.22-9.29-1.53-1.53-3.59-2.51-6.18-2.95-3.04-.85-11.19-3.18-14.67-4.56-1.3-.52-3.26-1.89-3.99-5.64,1.66-2.46,4.99-7.54,4.73-8.36-.41-1.35-4.18,4.16-5.78,3.56-1.14-4.63-2.37-7.96-2.8-7.96-.81,0-.02,10.59.63,16.43.32,2.86.86,4,3.94,5.43,1.89.88,4.08,1.86,6.13,2.76-.92.52-1.77,1.13-2.53,1.86-2.65,2.52-3.97,5.95-3.97,10.27s1.4,7.73,4.2,10.1,6.82,3.54,12.08,3.54c2.04,0,3.89-.17,5.57-.51,1.68-.34,3.47-.89,5.36-1.66v-6.74h-.93c-.96.73-2.28,1.42-3.94,2.05-1.66.64-3.38.96-5.15.96-2.8,0-4.92-.54-6.35-1.63-1.44-1.09-2.22-2.66-2.34-4.71h19.21v-2.94ZM75.26,70.32c.13-1.85.71-3.19,1.75-4.03,1.04-.84,2.37-1.26,3.99-1.26,1.74,0,3.02.44,3.84,1.33s1.26,2.21,1.31,3.96h-10.89Z"/>
  </g>
</svg>